<mxfile host="app.diagrams.net" modified="2023-11-22T02:21:26.323Z" agent="Mozilla/5.0 (Macintosh; Intel Mac OS X 10_15_7) AppleWebKit/537.36 (KHTML, like Gecko) Chrome/119.0.0.0 Safari/537.36" etag="h2L5EZX0WrDSVbMnyZ66" version="21.6.8" type="device">
  <diagram name="ページ1" id="kbHnH4pnT61ykx8QBMz1">
    <mxGraphModel dx="1026" dy="654" grid="1" gridSize="10" guides="1" tooltips="1" connect="1" arrows="1" fold="1" page="1" pageScale="1" pageWidth="827" pageHeight="1169" math="0" shadow="0">
      <root>
        <mxCell id="0" />
        <mxCell id="1" parent="0" />
        <mxCell id="NUH8p_eNezq9lCo--DJj-17" style="edgeStyle=orthogonalEdgeStyle;rounded=0;orthogonalLoop=1;jettySize=auto;html=1;" edge="1" parent="1" source="NUH8p_eNezq9lCo--DJj-5" target="NUH8p_eNezq9lCo--DJj-7">
          <mxGeometry relative="1" as="geometry" />
        </mxCell>
        <mxCell id="NUH8p_eNezq9lCo--DJj-5" value="" style="sketch=0;outlineConnect=0;fontColor=#232F3E;gradientColor=none;fillColor=#232F3D;strokeColor=none;dashed=0;verticalLabelPosition=bottom;verticalAlign=top;align=center;html=1;fontSize=12;fontStyle=0;aspect=fixed;pointerEvents=1;shape=mxgraph.aws4.user;" vertex="1" parent="1">
          <mxGeometry x="10" y="363" width="44" height="44" as="geometry" />
        </mxCell>
        <mxCell id="NUH8p_eNezq9lCo--DJj-18" value="Region" style="points=[[0,0],[0.25,0],[0.5,0],[0.75,0],[1,0],[1,0.25],[1,0.5],[1,0.75],[1,1],[0.75,1],[0.5,1],[0.25,1],[0,1],[0,0.75],[0,0.5],[0,0.25]];outlineConnect=0;gradientColor=none;html=1;whiteSpace=wrap;fontSize=12;fontStyle=0;container=1;pointerEvents=0;collapsible=0;recursiveResize=0;shape=mxgraph.aws4.group;grIcon=mxgraph.aws4.group_region;strokeColor=#147EBA;fillColor=none;verticalAlign=top;align=left;spacingLeft=30;fontColor=#147EBA;dashed=1;" vertex="1" parent="1">
          <mxGeometry x="120" y="120" width="480" height="520" as="geometry" />
        </mxCell>
        <mxCell id="NUH8p_eNezq9lCo--DJj-4" value="VPC" style="points=[[0,0],[0.25,0],[0.5,0],[0.75,0],[1,0],[1,0.25],[1,0.5],[1,0.75],[1,1],[0.75,1],[0.5,1],[0.25,1],[0,1],[0,0.75],[0,0.5],[0,0.25]];outlineConnect=0;gradientColor=none;html=1;whiteSpace=wrap;fontSize=12;fontStyle=0;container=1;pointerEvents=0;collapsible=0;recursiveResize=0;shape=mxgraph.aws4.group;grIcon=mxgraph.aws4.group_vpc;strokeColor=#248814;fillColor=none;verticalAlign=top;align=left;spacingLeft=30;fontColor=#AAB7B8;dashed=0;" vertex="1" parent="NUH8p_eNezq9lCo--DJj-18">
          <mxGeometry x="40" y="80" width="314" height="360" as="geometry" />
        </mxCell>
        <mxCell id="NUH8p_eNezq9lCo--DJj-15" style="edgeStyle=orthogonalEdgeStyle;rounded=0;orthogonalLoop=1;jettySize=auto;html=1;entryX=0;entryY=0.5;entryDx=0;entryDy=0;entryPerimeter=0;" edge="1" parent="NUH8p_eNezq9lCo--DJj-4" source="NUH8p_eNezq9lCo--DJj-7" target="NUH8p_eNezq9lCo--DJj-8">
          <mxGeometry relative="1" as="geometry" />
        </mxCell>
        <mxCell id="NUH8p_eNezq9lCo--DJj-16" style="edgeStyle=orthogonalEdgeStyle;rounded=0;orthogonalLoop=1;jettySize=auto;html=1;entryX=0;entryY=0.5;entryDx=0;entryDy=0;entryPerimeter=0;" edge="1" parent="NUH8p_eNezq9lCo--DJj-4" source="NUH8p_eNezq9lCo--DJj-7" target="NUH8p_eNezq9lCo--DJj-9">
          <mxGeometry relative="1" as="geometry" />
        </mxCell>
        <mxCell id="NUH8p_eNezq9lCo--DJj-7" value="" style="sketch=0;outlineConnect=0;fontColor=#232F3E;gradientColor=none;fillColor=#4D27AA;strokeColor=none;dashed=0;verticalLabelPosition=bottom;verticalAlign=top;align=center;html=1;fontSize=12;fontStyle=0;aspect=fixed;pointerEvents=1;shape=mxgraph.aws4.application_load_balancer;" vertex="1" parent="NUH8p_eNezq9lCo--DJj-4">
          <mxGeometry x="25" y="160" width="50" height="50" as="geometry" />
        </mxCell>
        <mxCell id="NUH8p_eNezq9lCo--DJj-8" value="" style="sketch=0;points=[[0,0,0],[0.25,0,0],[0.5,0,0],[0.75,0,0],[1,0,0],[0,1,0],[0.25,1,0],[0.5,1,0],[0.75,1,0],[1,1,0],[0,0.25,0],[0,0.5,0],[0,0.75,0],[1,0.25,0],[1,0.5,0],[1,0.75,0]];outlineConnect=0;fontColor=#232F3E;gradientColor=#F78E04;gradientDirection=north;fillColor=#D05C17;strokeColor=#ffffff;dashed=0;verticalLabelPosition=bottom;verticalAlign=top;align=center;html=1;fontSize=12;fontStyle=0;aspect=fixed;shape=mxgraph.aws4.resourceIcon;resIcon=mxgraph.aws4.fargate;" vertex="1" parent="NUH8p_eNezq9lCo--DJj-4">
          <mxGeometry x="131" y="80" width="53" height="53" as="geometry" />
        </mxCell>
        <mxCell id="NUH8p_eNezq9lCo--DJj-9" value="" style="sketch=0;points=[[0,0,0],[0.25,0,0],[0.5,0,0],[0.75,0,0],[1,0,0],[0,1,0],[0.25,1,0],[0.5,1,0],[0.75,1,0],[1,1,0],[0,0.25,0],[0,0.5,0],[0,0.75,0],[1,0.25,0],[1,0.5,0],[1,0.75,0]];outlineConnect=0;fontColor=#232F3E;gradientColor=#F78E04;gradientDirection=north;fillColor=#D05C17;strokeColor=#ffffff;dashed=0;verticalLabelPosition=bottom;verticalAlign=top;align=center;html=1;fontSize=12;fontStyle=0;aspect=fixed;shape=mxgraph.aws4.resourceIcon;resIcon=mxgraph.aws4.fargate;" vertex="1" parent="NUH8p_eNezq9lCo--DJj-4">
          <mxGeometry x="131" y="230" width="53" height="53" as="geometry" />
        </mxCell>
        <mxCell id="NUH8p_eNezq9lCo--DJj-11" value="ALB" style="text;html=1;strokeColor=none;fillColor=none;align=center;verticalAlign=middle;whiteSpace=wrap;rounded=0;" vertex="1" parent="NUH8p_eNezq9lCo--DJj-4">
          <mxGeometry x="20" y="223" width="60" height="17" as="geometry" />
        </mxCell>
        <mxCell id="NUH8p_eNezq9lCo--DJj-12" value="Fargate&lt;br&gt;Frontend" style="text;html=1;strokeColor=none;fillColor=none;align=center;verticalAlign=middle;whiteSpace=wrap;rounded=0;" vertex="1" parent="NUH8p_eNezq9lCo--DJj-4">
          <mxGeometry x="127.5" y="140" width="60" height="30" as="geometry" />
        </mxCell>
        <mxCell id="NUH8p_eNezq9lCo--DJj-13" value="Fargate&lt;br&gt;WebSocket" style="text;html=1;strokeColor=none;fillColor=none;align=center;verticalAlign=middle;whiteSpace=wrap;rounded=0;" vertex="1" parent="NUH8p_eNezq9lCo--DJj-4">
          <mxGeometry x="124" y="290" width="60" height="30" as="geometry" />
        </mxCell>
        <mxCell id="NUH8p_eNezq9lCo--DJj-25" value="Endpoint&lt;br&gt;bedrock-runtime" style="text;html=1;strokeColor=none;fillColor=none;align=center;verticalAlign=middle;whiteSpace=wrap;rounded=0;" vertex="1" parent="NUH8p_eNezq9lCo--DJj-4">
          <mxGeometry x="218" y="283" width="104" height="30" as="geometry" />
        </mxCell>
        <mxCell id="NUH8p_eNezq9lCo--DJj-23" value="" style="sketch=0;outlineConnect=0;fontColor=#232F3E;gradientColor=none;fillColor=#4D27AA;strokeColor=none;dashed=0;verticalLabelPosition=bottom;verticalAlign=top;align=center;html=1;fontSize=12;fontStyle=0;aspect=fixed;pointerEvents=1;shape=mxgraph.aws4.endpoint;" vertex="1" parent="NUH8p_eNezq9lCo--DJj-4">
          <mxGeometry x="250" y="236.5" width="40" height="40" as="geometry" />
        </mxCell>
        <mxCell id="NUH8p_eNezq9lCo--DJj-24" value="" style="edgeStyle=orthogonalEdgeStyle;rounded=0;orthogonalLoop=1;jettySize=auto;html=1;entryX=0;entryY=0.5;entryDx=0;entryDy=0;" edge="1" parent="NUH8p_eNezq9lCo--DJj-4" source="NUH8p_eNezq9lCo--DJj-9" target="NUH8p_eNezq9lCo--DJj-23">
          <mxGeometry relative="1" as="geometry">
            <mxPoint x="304" y="377" as="sourcePoint" />
            <mxPoint x="470" y="377" as="targetPoint" />
          </mxGeometry>
        </mxCell>
        <mxCell id="NUH8p_eNezq9lCo--DJj-19" value="" style="shape=image;verticalLabelPosition=bottom;labelBackgroundColor=default;verticalAlign=top;aspect=fixed;imageAspect=0;image=data:image/png,iVBORw0KGgoAAAANSUhEUgAAAHoAAAB6CAYAAABwWUfkAAAAAXNSR0IArs4c6QAAAIRlWElmTU0AKgAAAAgABQESAAMAAAABAAEAAAEaAAUAAAABAAAASgEbAAUAAAABAAAAUgEoAAMAAAABAAIAAIdpAAQAAAABAAAAWgAAAAAAAACQAAAAAQAAAJAAAAABAAOgAQADAAAAAQABAACgAgAEAAAAAQAAAHqgAwAEAAAAAQAAAHoAAAAAtCZ33AAAAAlwSFlzAAAWJQAAFiUBSVIk8AAAEIBJREFUeAHtXQe4FcUVPtQnRXq30OujIyAKCA9BUEyiWCkhxBg1FgRiYvkUMIl+xqCAosZEbKAoEUvo0jGiSBcEpKr0IkU6vEfOvzDr3H177929d/bu3Lt7vu+9bbOzZ86/szNz2iUKKRASKIBWFpgw4mwgWhvQRp69bUiBggFte+CaHQIdEMhDoEOgAyKBgDQz7NEh0AGRQECaGfboEOiASCAgzQx7dAh0QCQQkGaGPToEOiASCEgzwx4dAh0QCQSkmWGPDoEOiAQC0sywRwcE6MLp3M4+1RvS8MbtqGjBQvTx9k008YdvaeHebRS6y+RHNS2BblW2Mo1u2ZnaVahmtujeus0Jf7uOH6UPtm0IQTclc24nrXzGKmYVo6eatqcBNRtTwQIG65bmRB6GoJ+TB3zG0gLowuzadh/31qHZ7ah00SwTzZO5Z+j5b5fRrF3f0Y0X1zX+qhQrYV6Xd4IMeloA3a1KdRrZojM1KFVOxo0+4TF58PJ5tPnoIfM83toOFS+mmy+pR70Y+Higj+SXZNORg+b9mbqjNdC1SpSm51t0ousvqh0h/3WHf6QHl8+lmdyLY5ET0LccOUS1p7wWq5qMuAagtZuMlShchB5r1JYG1WtJWYUi2UMPfnHDCjpzNi8uAJh5L+AZOP4eWDbHtqfXLFk6bj12BRqXrkBD6reiLpUvpUpZxWnPyWM0e/f3NGL9Ulp9aJ/dLb6f02qMxnLpmWYdqFqxkraCKfjec7bn3ZxEg3NvHWze4rZOzBWeb96JChXMr4LIzcujQSvOvYzmAzTY0aZH2y2XIJ9F+3ZELKFUyCyZNTbG/tEtc6KyAfBxffeJY8byLmpBHy7kfy1TyASWS/9q3ZUWd+0dAeiO40eo3xfT6MrZE1LITexHQSmDOYOgz/Zup1Yzx1HWxJHGFseCUK6ITY8X1/3YRg6CKeTggbotWKt1he1y6W/ffElHz5xOITfxH9W50iXmkLLt2E/UY8Ekk8flB/YYx2t7/IYuLn6hUS6n0qU0Y9fW+BWnqIQvPbovj8UjWbMlr4mxXMqe9iY9uuozU4ApkoGjx2SXLm+Wm8SaN+uLiGOcFySXF+f83PrSo2uXLGO2eeNPB+g+nhXHWy6ZN/i0U5CMeavjp7sr7bjahAv60qNlbsd/t057kMGvvGyCFg7LQJlwjPOC1hzaL3a12PoOtBZScMDE7D3f006eJIIwDk/reCO1KFvJmHRhi2OcB6EcyutEvny6dRKAU15O8xp5ICts3r+ip3FL+4oX0dJufW1vRzmU14kyAmgYOwQNX7NI7Crf/oft3fcunU2jWPde2Gb5dMZ4GeYSyulGmQE0Ox8I8hJoPOPljStp3p4faDCrQO+o1UQ8ll7b/DU9xyrQtayL15HCMToBVADmnV99GnEnjnUFGYyGQEfAlbkHIdCZi21Ey7Qfo91alyJaFx6YEgh7tCmKzN4Jgc5sfM3WhUCbosjsHe3HaK/FLytbvH6Wn/WnHOjrqtakfjUamm3G/pIfd9GUnVvMc0534Nv9UP3LnBa3LTdUUrbYFsiQkykDulGp8oaHRld235WpFpss/9vxBvqUvToHsY74m8POrD4N2f339TbXUJvyVc3q1vuklYKpVXfyHOhyRS+gJ9mT5K7aTSMc6g6eOmHIpgxfB+EFWHlNP/rnplU0dPXntP/8deOi9E/04mHcE2Uv0cX7d1Jfdj9yS8P4WcnQKdZvv//9+mSqSMm9ngGN6ArEQg3NvpwEmGgRPCUFmDiGO5F4CeBc9we+p3f1BvTkmi/yufaiF7/Rpju1Ll8FtxqEaI1hqxfRs+uXUN5Z965/eE4QyBOgMQ6PYAe5eheWjZCh3ecZ3iUvsaEADnXis44X4zk+vrtOMxrCn/Np7HuFsdiuFw9YPENrHXOEAHw8UAo0oitevuxqEzDRrm95DANg0SZcGJevmf8BWV8QvCgYv3efOEqVL/g5pirZXiz48nMLL9Eu7ECIYIA8DvSFR8pctoqdysv1hC2lQM/s1IswuRKEcdjuEyyuW7d4EWbwpAxO8k9In3wZZIzF6d6Lb2L/8FH8xapqCVSAmzMmpIjzVk1KFSYyyC9x6EydKWMJgWxOQmhEw1AW99Tle1GHTI+sXEhXsK+3zuZAmV+7/Xt4OIKXihVklEWEynt8DS+6alIKtMwcxt4fo8ycMVGrwM77sQizbtQh0zPrvkpowiXX4ec+JpPwThEE//DR/FLjD/uCEPKDT7pK8gzoaExiHF7doz+92bZ7tCIZex5eKcIFCZEdDae9wZGh84w/7ItoD6w+EMSnkpSO0bEYsypMMNHqXqUGTfc5miFPCriLxb/qawM59FcOAsA+zgmHQ0RqqiTPgS7PSyV5rSyYx0StXNY5ZYk4F6St7Ccu2i2fQziuSvIMaJGOQp49g3GhMHmCNVLRxnCVDdS1LozBiNmSSR6XEXOtkjwDGuOwE4VJrMZUldbOKIfjnbymVkmp9GBB5KjwHMWkTA7UQ6SHPFFDYL1K8gxoGeR4ChNrgwqxVWogZzywmhDXXTuA4M47imepuQmoO63PSfUx3IH718g2JmQIAED0pQjMQziPiPTAVw/ZE1SSZ0CDSYzDw1mXPMZhOgrccxUnm3mxVQ5l2ywvLixSlP7R/CpOP5VN9y2dQ/M5bUU6Edb/mHCNadXFYBvAPsAvtJWQNUEer63XEzn2bHklFCbofU4UJvgsj7/8Wpqbc0sEyGs4J8hd7DONrSC8BCiH8lUsn3dRRtctAgBu+XyyGccl8wnN2K18DXlaVJNnPdqq7IjFeP8ajYyUEOixgn46fYqtUp/T6A3Ljc/02C2rCcHzw9jaJcrdzlauntVqGclo3tz6jbhV+y1Cdj7evjGfrnsOB+Z5FbPlGdBupL3v5HETPNz3LofSDlkxn3ZJEy+MyUge9y7bfkfw5xsggwA67k83AqDQIaRKj6AF0DBmTN6xmWqWKBV37AX4fb6YSq+ygwLG8i1HD0e1iqUb+F7yqwXQaGD/L6fT4dMnHc+mMRFrPuNtKlXk55SRiQjKOrNPpA5xzwl2gnjvh/W0lV8+3UgboA9EMYDEEhg+54ncJ9ep2jkQy0K8gKoVHjLPiex7NutOhJlMuAf5R99pd63LjCfet1ybHm1tKpwAi3OKyCMep6FK1jlQ8A3N1hB2dwLfOWyQeJwdJ3TyR/MM6Bc5g16i+mzhBLj12GFjXSmEmey2JINhHZNVggELFJZ/oCc4C8NCNkXCPUgHUgr0Zk6JLLxMYnlzRmu41ZUX3p4T2e1GRaqI2y6tb2jVouUZjcaTm/N/YS1gR9bsoUejLfiE41xvzqvWokxFY6K5hv3jxm1dS69uXuXZmtmOZyMdVoEJI9z7ydrUlqhzIKoSvdjqyjuY19PQJiVKsINjGdaJM//ZkWqjRuULitPybv2i5goXPKxgy1XPhR8RtGFeE5K+Kp2MIUk6vDmvX/AhwZAhSHhzzriqF0HwMuHN/3OD1rSMM/zIIMMJsCXn2kwUZHymn23WkVZwUIAMsteCRcJXOC/Go+acsmpyh1+lLGeoUqBF46AAaczpHpFfW0Rk4JqIxsD4DYcE9OJFXW6npzl1s4i6gCtvsk6A+EzD0jWkwWWm6w4yBo1Yt4QaTH1dsOnZto7kCXsqN5ceXDaXyk0aY/xhH+dAAPv3tZp6xodcsdIxWq5YeHO+zTpo2cNEjsYoxrNqATDuTdaVN9pnGlmEkDYqVd6jchDhn1YuMPT1QjbQ3YOQCxXUl4MMx2xUb8QwKpf+edKjpfqNGCoYOJqxEgGRGoIQjSFATrYXx/pM9140hXLmTkwZyGhfE8nE+paNsUU+l20ZyoR8VG8969FWRuVojFH8NovZ+aqDe+l2BiPR3mY3m8ZnGuZROCnEW4e7dQ5E5GT3+ZMifrTF2lY3ThFKZsFWBmyOPe/R1mdi/H6blxeCPty2MSGQ8Zme0/lmXsJcZ+bRRp34TDeb8RY9xJ/MeCALHtxs67D36i08B4hFWEIJ+jWbYK0kn3MaJmytw+1xynq0W8ailRdKD+iUhY80ymI2/Udeik1IQQhrFmfjj0VYJ7c9H7f9d575g8TnGiCLcziPsqmgtAI62c+0nUCdrqOhUXNqAIEy5I5ajY1ZddFChYyJl5h8yTxgLY2yqaC0AFqX2bRTQOBUAGUI1slYQtmRUJh45VFifabWQOvwmbYKzOkxhpK2s94x1slYQonZtV8qUK2BxucSSg9BbmbT4h4/t+itWCOnYp0cr50pn3XHY0i+/vTaxbT/vD+Y17Np+bmZuK91j0bIzv3nQ2dTMZvORIBFm7QGGkz6DTBiyH7LM2jhdQqesI/QoLGbVzvyWcc9fpP2QPspIJgcJ3e4gVqVqxzBBqxxr3Culjs5A3/PhR8aP1EYUUDDA63HaD/lhZ48lX/5xgqyzBOuoQzK6k76c+hCgvitS9ig8TuSydLddZoaP3eEemKZGvFTSCirO2UM0L/jz6iwQT/SsE3ScsfPKgoSpsaD7HeOP5gacU6QXFac023rO9B9eGLTrUr1hOUC54UFObfSqxx7XJZNn6CHG7bmvGTJZQyQg9KFnlpmUj4nl5XL6LTvC9Cb2IlQEKxB09nF6KP2vyT4nDklGBb+2uRKw1UIscaCYEa8ntWPcOlJhtykm3RjlkyGp2Tu9QXocd+tpYHsUnPo1EmT919cVJvWcJaEp5q2z/e7j2ah8ztXs5clMio82qgt+1ydG49Pc8Y9/Bxxk+lv0SwF2QJ0NDVa5eDm2BegweALPM7VmzrW+GEw0XvgcfIwj6/r2d+rjzRGigZhsjXu8h40s9NNJP9iLdI2IQzm8a//RycVpViUzYcwKyJktwzHeeEP+36YGoUcEtkqdfdNhAHc05Jnri+ww2C7CtUiqli0b4ehGVvG5jyY/SBcMQ6jIOKuMCl6jRUXbkj2KolmpkSuzi+v7h3V+iSeBysUjBepskKJ57rZwt1XC4UJgLySUz+iFz/DHqHCyR7AL+7ahzbwuFufJ10yjWeD/eAV82ivy9ho482WK4qyr6OpMQqrjk5rAbTgdDyP3R9xJoDHeOwdxB4k+JTD71sGGRO5e5bMcjUOA9wOHEFxM0d99JJ+41k8N9pWN1NjND6dnNcKaDCM+KVHV31G/97EP+rJGXAxSZMJPQ3gxyMruIhytBJCiOKRTqbGeLzGum5ITFVITqwHJXoNa+yRnJOrgeXT/cn2TUaAAKJDBDkBF2V3HT9KH2zbYGQRlpd6op5M22KM1h5oCB265PuNHN7tqHTRnzMcwB8ceU3gL448Xfgs2/Vc1AFwkdPrfU4Us5CzJaTKzRbP9pvSBmghKCyvsM4eULOxo893kMEVMsNWm1m3zFSsfcyw8TvNr2xcxemqOudbjuFe8VlGFvug9dxYstNuMhaLWXFt6YHd5nIMalCseREIEIIrJJR/m5ZAi2ZgOYa/kOJLwDcVaHzWwhIqJRACrVKaGtcVAq0xOCpZC4FWKU2N6wqB1hgclayFQKuUpsZ1hUBrDI5K1kKgVUpT47pCoDUGRyVrIdAqpalxXSHQGoOjkrUQaJXS1LiuEGiNwVHJWgi0SmlqXFcItMbgqGQtBFqlNDWuKwRaY3BC1kIJuJbA/wEpdtj0FxBw6AAAAABJRU5ErkJggg==;" vertex="1" parent="NUH8p_eNezq9lCo--DJj-18">
          <mxGeometry x="390" y="311" width="52" height="52" as="geometry" />
        </mxCell>
        <mxCell id="NUH8p_eNezq9lCo--DJj-20" style="edgeStyle=orthogonalEdgeStyle;rounded=0;orthogonalLoop=1;jettySize=auto;html=1;entryX=0;entryY=0.5;entryDx=0;entryDy=0;" edge="1" parent="NUH8p_eNezq9lCo--DJj-18" source="NUH8p_eNezq9lCo--DJj-23" target="NUH8p_eNezq9lCo--DJj-19">
          <mxGeometry relative="1" as="geometry" />
        </mxCell>
        <mxCell id="NUH8p_eNezq9lCo--DJj-22" value="Bedrock" style="text;html=1;strokeColor=none;fillColor=none;align=center;verticalAlign=middle;whiteSpace=wrap;rounded=0;" vertex="1" parent="NUH8p_eNezq9lCo--DJj-18">
          <mxGeometry x="386" y="363" width="60" height="30" as="geometry" />
        </mxCell>
      </root>
    </mxGraphModel>
  </diagram>
</mxfile>
